<svg id="visual" viewBox="0 0 900 600" width="900" height="600" xmlns="http://www.w3.org/2000/svg" xmlns:xlink="http://www.w3.org/1999/xlink" version="1.1"><rect x="0" y="0" width="900" height="600" fill="#002233"></rect><path d="M0 26L18.8 24C37.7 22 75.3 18 112.8 18.7C150.3 19.3 187.7 24.7 225.2 29.8C262.7 35 300.3 40 337.8 37.3C375.3 34.7 412.7 24.3 450.2 22.3C487.7 20.3 525.3 26.7 562.8 31.7C600.3 36.7 637.7 40.3 675.2 39.2C712.7 38 750.3 32 787.8 31C825.3 30 862.7 34 881.3 36L900 38L900 0L881.3 0C862.7 0 825.3 0 787.8 0C750.3 0 712.7 0 675.2 0C637.7 0 600.3 0 562.8 0C525.3 0 487.7 0 450.2 0C412.7 0 375.3 0 337.8 0C300.3 0 262.7 0 225.2 0C187.7 0 150.3 0 112.8 0C75.3 0 37.7 0 18.8 0L0 0Z" fill="#E32227" stroke-linecap="round" stroke-linejoin="miter"></path></svg>